<?xml version="1.0" encoding="utf-8"?>
<!-- Generator: Adobe Illustrator 23.0.0, SVG Export Plug-In . SVG Version: 6.00 Build 0)  -->
<svg version="1.1" id="OBJECTS" xmlns="http://www.w3.org/2000/svg" xmlns:xlink="http://www.w3.org/1999/xlink" x="0px" y="0px"
	 viewBox="98 110 580 300" style="enable-background:new 0 0 100 100;" xml:space="preserve">
<style type="text/css">
	.st0{fill:#6805F2;}
	.st1{fill:#D3D3D3;}
	.st2{fill:#F2CB05;}
	.st3{fill:#8245BF;}
	.st4{fill:#FFFEFD;}
	.st5{fill:#E4F4F4;}
	.st6{fill:#272742;}
	.st7{fill:#3E0991;}
	.st8{fill:#C65DC4;}
	.st9{fill:#F6FAFD;}
	.st10{fill:#FFDB43;}
	.st11{fill:#D3AB05;}
	.st12{fill:#FF5331;}
	.st13{fill:#05F29B;}
	.st14{fill:#8841F7;}
	.st15{fill:#FFC533;}
</style>
<path class="st0" d="M668.19,380.02c-0.2,9.8-0.96,19.57-1.92,29.32c-0.03,0.21,0.02,0.39,0.1,0.54
	c-73.34,0.02-146.67,0.04-220,0.07c-73.27,0.02-146.53,0.05-219.79,0.07c-41,0.01-82,0.03-123.01,0.04
	c-5.72-13.88-3.37-30.71,5.42-42.61c9.6-12.99,26.79-15.2,35.94-28.75c8.49-12.54,9.71-28.86,11.18-43.69
	c1.45-14.68,4.02-31.65,14.69-42.32c12.68-12.69,31.19-8.6,47.02-10.03c14.94-1.36,27.11-9.27,35.92-21.88
	c20.84-29.89,14.53-69.54,27.71-102.5c6.21-15.55,16.83-28.59,32.23-34.41c14.98-5.67,31.59-4.63,46.91-1.11
	c16.95,3.9,32.89,11.33,49.25,17.21c8.64,3.1,17.45,5.81,26.47,7.37c8.98,1.54,17.87,1.55,26.92,0.91
	c8.99-0.63,17.98-1.27,26.85,0.74c7.24,1.63,14.16,4.64,20.44,8.76c12.88,8.44,22.98,21.5,27.58,36.76
	c8.71,28.9-0.19,64.66,19.61,89.46c18.72,23.45,51.79,22.91,74.54,39.98C661.05,305.55,668.91,345.03,668.19,380.02z"/>
<path class="st1" d="M93.94,409.34l584.09-0.74c0,0-66.64,22.39-304.47,22.39S93.94,409.34,93.94,409.34z"/>
<g>
	<path class="st2" d="M670.78,408.85l-0.03,0.18H415.46c1.99-6.7,7.56-12.12,13.9-15.33c7.14-3.61,15.21-4.83,23.13-6.01
		c-6.59-7.48-11.38-16.55-13.82-26.22c-1.89-7.39-1.74-16.63,4.54-20.94c4.16-2.87,9.73-2.56,14.65-1.43
		c8.9,2.04,17.26,6.38,24.02,12.52c-1.86-13.29-1.19-26.92,1.92-39.97c1.9-7.91,5.79-16.69,13.67-18.72
		c7.12-1.86,14.35,2.78,19.42,8.12c7.42,7.83,12.63,17.74,14.88,28.31c7.97-14.15,16.25-28.68,29.01-38.72
		c6.74-5.3,16.14-9.22,23.75-5.24c5.39,2.82,8.33,9.01,8.87,15.07c0.53,6.05-0.95,12.09-2.43,17.97c-1.98,7.91-3.95,15.81-5.93,23.7
		c9.63-6.04,20.44-10.15,31.64-12.06c4.54-0.77,9.49-1.1,13.5,1.16c5.55,3.14,7.53,10.5,6.29,16.75c-1.22,6.26-4.96,11.68-8.62,16.9
		c-3.44,4.92-6.88,9.82-10.32,14.74c10.8-3.14,22.81-1.83,32.67,3.58C660.06,388.63,667.62,398.06,670.78,408.85z"/>
	<path class="st3" d="M503.51,333.11v75.27c0,0.97,1.51,0.97,1.51-0.01V333.1C505.02,332.13,503.51,332.14,503.51,333.11z"/>
	<path class="st3" d="M577.21,372.47c-4.62,5.8-9.02,11.78-13.2,17.91v-23.11c0.07-0.13,0.09-0.26,0.08-0.4
		c3.46-5.57,7.14-11,11.05-16.27c0.58-0.78-0.73-1.53-1.31-0.75c-3.45,4.66-6.72,9.44-9.82,14.34v-35.16c0-0.97-1.51-0.97-1.51,0.01
		v36.68c-5.36-2.58-11.14-4.17-16.37-7.03c-0.85-0.47-1.61,0.84-0.75,1.31c5.47,3,11.56,4.6,17.13,7.4v22.84
		c-4.79-2.71-9.51-5.55-14.13-8.54c-0.82-0.53-1.57,0.78-0.75,1.31c4.87,3.15,9.83,6.14,14.89,8.98v15.38
		c0,0.97,1.51,0.97,1.51-0.01v-14.37c0.03-0.04,0.07-0.06,0.1-0.1c4.46-6.63,9.18-13.09,14.16-19.34
		C578.87,372.8,577.82,371.72,577.21,372.47z"/>
	<path class="st3" d="M517.17,341.94c-4.87,5.96-9.39,12.2-13.54,18.68c-0.52,0.82,0.78,1.57,1.31,0.75
		c4.07-6.37,8.51-12.5,13.29-18.36C518.84,342.27,517.79,341.19,517.17,341.94z"/>
	<path class="st3" d="M518.63,377.78c-5.29,5.78-10.24,11.86-14.85,18.2c-0.57,0.78,0.74,1.53,1.31,0.75
		c4.53-6.23,9.41-12.19,14.61-17.88C520.34,378.14,519.29,377.06,518.63,377.78z"/>
	<path class="st3" d="M504.39,378.87c-1.55-2.47-3.81-4.52-5.79-6.65c-2.1-2.26-4.21-4.52-6.31-6.79c-0.66-0.71-1.74,0.35-1.07,1.06
		c2.05,2.2,4.09,4.4,6.14,6.59c1.01,1.08,2.02,2.17,3.02,3.25c0.97,1.04,1.95,2.07,2.71,3.28
		C503.59,380.43,504.9,379.69,504.39,378.87z"/>
	<path class="st3" d="M504.74,346.26c-3.66-4.13-7.51-8.08-11.54-11.85c-0.71-0.66-1.79,0.4-1.07,1.06
		c4.03,3.77,7.88,7.72,11.54,11.85C504.31,348.05,505.38,346.98,504.74,346.26z"/>
</g>
<g>
	<path class="st2" d="M340.05,408.99H100.18h-0.02c-1.15-6.96,5.46-13.25,12.07-16.25c10.26-4.68,22.16-5.64,33.04-2.7
		c-6.14-6.77-11.98-14.18-14.59-22.95c-2.61-8.77-1.34-19.21,5.24-25.56c5.96-5.75,15.25-7.09,23.25-4.92
		c8.01,2.17,14.86,7.39,20.64,13.34c-5.48-13.81-5.54-29.68-0.17-43.53c2.49-6.43,7.27-13.17,14.17-13.43
		c3.47-0.12,6.79,1.48,9.63,3.5c7.5,5.33,12.51,13.59,15.5,22.3c2.99,8.69,4.13,17.91,5.25,27.04c3.39-6.62,8.33-12.43,14.29-16.87
		c6.1-4.51,14.5-7.54,21.15-3.91c6.55,3.58,8.57,11.99,9.01,19.46c0.56,9.57-0.33,19.22-2.67,28.52
		c7.83-6.01,17.11-10.34,26.92-11.44c9.81-1.12,20.13,1.18,27.97,7.17C332.96,378,337.37,394,340.05,408.99z"/>
	<path class="st3" d="M197.81,384.66v-19.69c0.1-0.06,0.2-0.14,0.27-0.27c4.31-7.35,9.02-14.47,14.11-21.31
		c0.58-0.78-0.73-1.53-1.31-0.75c-4.69,6.31-9.04,12.86-13.07,19.6v-46.31c0-0.97-1.51-0.97-1.51,0.01v67
		c-5.44-5.61-10.73-11.35-15.83-17.26c-0.64-0.74-1.71,0.33-1.07,1.06c5.44,6.31,11.08,12.44,16.9,18.39v21.94
		c0,0.97,1.51,0.97,1.51-0.01v-5.31c3.81-5.47,8.04-10.64,12.64-15.46c0.67-0.7-0.39-1.78-1.06-1.07
		c-4.18,4.38-8.04,9.07-11.58,13.98v-14.21C197.83,384.88,197.84,384.77,197.81,384.66z"/>
	<path class="st3" d="M256.12,362.17c-4.03,5.12-7.76,10.47-11.2,16c0.1-4.26,0.19-8.52,0.32-12.78c0.12-3.94,0.25-7.88,0.4-11.82
		c0.04-0.97-1.47-0.96-1.51,0.01c-0.47,12.97-0.81,25.95-1.02,38.92c-4.89-2.71-9.58-5.77-14.01-9.19
		c-0.77-0.59-1.51,0.72-0.75,1.31c4.65,3.58,9.58,6.79,14.73,9.6c-0.01,0.41-0.02,0.82-0.03,1.23c-0.06,3.94-0.11,7.89-0.14,11.83
		c-0.01,0.97,1.5,0.97,1.51-0.01c0.04-4.45,0.1-8.9,0.18-13.34c0.03-0.11,0.03-0.23,0.01-0.34c0.07-4.23,0.16-8.46,0.25-12.68
		c0.12-0.06,0.23-0.14,0.31-0.28c3.66-6.02,7.67-11.83,12.02-17.37C257.77,362.49,256.72,361.41,256.12,362.17z"/>
	<path class="st3" d="M167.33,384.43c-3.26,3.88-6.31,7.92-9.21,12.08c0.27-5.3,0.5-10.59,0.66-15.9c0.03-0.97-1.48-0.96-1.51,0.01
		c-0.28,9.3-0.73,18.59-1.35,27.87c-0.06,0.97,1.44,0.96,1.51-0.01c0.22-3.24,0.39-6.48,0.56-9.72c0.22-0.01,0.44-0.1,0.59-0.33
		c3.05-4.47,6.32-8.79,9.8-12.94C169.01,384.77,167.95,383.69,167.33,384.43z"/>
</g>
<g>
	<path class="st4" d="M222.2,409h308.96c0,0,41.63-120.26-56.52-113.38c0,0-8.21-82.5-93.18-82.5s-97.05,89.76-97.05,89.76
		S182.52,273.85,222.2,409z"/>
	<path class="st5" d="M531.16,409h-210c98.2-2.96,63.48-72.39,63.48-72.39c104.9-20.37,50.11-108.76,50.11-108.76
		c35.52,23.72,39.9,67.76,39.9,67.76C572.78,288.75,531.16,409,531.16,409z"/>
	<g>
		<path class="st6" d="M444.8,255.81l-8.63,5.78c-0.19-0.28-1.6-2.29-4.26-5.09c-1.56-1.65-3.56-3.58-6-5.57
			c-0.12-0.1-0.24-0.2-0.36-0.3c-3.86-3.12-8.79-6.39-14.81-9.09c-4.68-2.09-10.02-3.84-16.04-4.9c-0.1-0.01-0.21-0.03-0.34-0.05
			c-3.72-0.64-7.69-1.01-11.94-1.03c-0.17-0.01-0.34-0.01-0.49-0.01c-2.62,0-5.12,0.09-7.51,0.26c-3.74,0.25-7.22,0.7-10.46,1.3
			c-0.95,0.17-1.89,0.36-2.8,0.57c-1.54,0.33-3.03,0.71-4.47,1.11c-3.45,0.98-6.59,2.11-9.42,3.36c-2.62,1.15-4.98,2.38-7.1,3.65
			c-0.34,0.2-0.67,0.4-0.99,0.6c-2.01,1.26-3.8,2.55-5.38,3.8c-1.6,1.28-2.97,2.53-4.15,3.7c-0.27,0.26-0.53,0.52-0.77,0.78
			c-3.51,3.64-4.99,6.36-5.03,6.45l-9.18-4.86c0.21-0.44,2.29-4.24,6.96-9.05c1.18-1.21,2.52-2.49,4.05-3.79
			c1.93-1.66,4.15-3.37,6.69-5.03c1-0.66,2.04-1.31,3.14-1.95c1.16-0.68,2.38-1.35,3.65-1.99c4.83-2.47,10.5-4.68,17.09-6.32
			c0.44-0.11,0.89-0.22,1.36-0.32c1.15-0.27,2.33-0.53,3.53-0.76c3.13-0.61,6.44-1.09,9.96-1.41c1.78-0.17,3.64-0.29,5.53-0.37
			c0.51-0.02,1.02-0.04,1.55-0.06c1.22-0.04,2.46-0.06,3.75-0.06c0.44,0,0.9,0,1.34,0.01c1.53,0.03,3.02,0.09,4.47,0.19
			c1,0.07,1.99,0.15,2.96,0.25c0.18,0.01,0.37,0.03,0.55,0.05c16.61,1.82,29.21,8.27,38.02,14.75c1.35,1,2.62,1.99,3.79,2.98
			c2.36,1.96,4.36,3.87,6,5.57C442.65,252.68,444.55,255.44,444.8,255.81z"/>
	</g>
	<path class="st5" d="M272.85,315.14c-2.63-1.15-5.59-1.21-8.43-1.13c-2.58,0.07-5.17,0.39-7.7,0.92c-5.17,1.07-10.2,3.13-14.63,6
		c-9.02,5.82-15.49,14.91-18.17,25.31c-1.5,5.82-1.73,11.85-0.79,17.78c0.21,1.33,1.85,2.09,3.06,1.77
		c1.42-0.38,1.98-1.72,1.77-3.06c-1.44-9.09,0.72-18.63,5.62-26.38c4.91-7.75,12.75-13.36,21.55-15.86c2.46-0.7,4.99-1.18,7.54-1.36
		c1.32-0.1,2.64-0.13,3.96-0.09c1.18,0.03,2.62-0.03,3.72,0.45c1.24,0.54,2.69,0.35,3.42-0.92
		C274.38,317.48,274.1,315.68,272.85,315.14z"/>
	<path class="st5" d="M231.43,394.56c-1.72-5.5-2.65-11.17-2.76-16.93c-0.02-1.35-1.15-2.49-2.51-2.49
		c-1.34,0.01-2.51,1.16-2.49,2.51c0.11,6.16,1.09,12.32,2.93,18.2c0.4,1.29,1.72,2.13,3.06,1.77
		C230.93,397.29,231.83,395.86,231.43,394.56z"/>
	<path class="st5" d="M310.19,269.1c-8.79,9.74-14.59,22.05-16.28,35.08c-0.17,1.34,0.37,2.68,1.79,3.05
		c1.18,0.31,2.88-0.44,3.05-1.79c1.57-12.15,6.74-23.67,14.95-32.77C315.85,270.28,312.35,266.71,310.19,269.1z"/>
	<g>
		<path class="st7" d="M395.12,327.5h-6.93v24.88c0,3.43-2.78,6.21-6.21,6.21h-5.14c-3.43,0-6.21-2.78-6.21-6.21V327.5h-6.92
			c-2.73,0-4.38-3.02-2.9-5.31l15.7-24.42c1.36-2.11,4.44-2.11,5.8,0l15.71,24.42C399.49,324.48,397.85,327.5,395.12,327.5z"/>
		<g>
			<path class="st7" d="M444.67,379.45H314.79v-29.17c0-2.26,1.83-4.1,4.1-4.1h3.81c2.26,0,4.1,1.83,4.1,4.1v17.17h105.89v-17.17
				c0-2.26,1.83-4.1,4.1-4.1h3.81c2.26,0,4.1,1.83,4.1,4.1V379.45z"/>
		</g>
		<path class="st0" d="M395.12,329.6h-6.93v24.88c0,3.43-2.78,6.21-6.21,6.21h-5.14c-3.43,0-6.21-2.78-6.21-6.21V329.6h-6.92
			c-2.73,0-4.38-3.02-2.9-5.31l15.7-24.42c1.36-2.11,4.44-2.11,5.8,0l15.71,24.42C399.49,326.58,397.85,329.6,395.12,329.6z"/>
		<g>
			<path class="st0" d="M444.67,381.55H314.79v-29.17c0-2.26,1.83-4.1,4.1-4.1h3.81c2.26,0,4.1,1.83,4.1,4.1v17.17h105.89v-17.17
				c0-2.26,1.83-4.1,4.1-4.1h3.81c2.26,0,4.1,1.83,4.1,4.1V381.55z"/>
		</g>
	</g>
	<g>
		<path class="st8" d="M366.58,141.59l-48.95,51.64c8.73-1.42,17.72-1.29,26.38,0.37c4.24,0.8,8.61,2.08,11.62,5.15
			c4.01,4.09,4.71,10.26,5.04,15.98c0.24,4.11,0.4,8.22,0.47,12.33c0.03,1.48,0.04,2.96,0.04,4.44l0.6-0.02
			c5-0.17,10.01-0.37,15-0.55c7.09-0.25,14.28-0.49,21.03,1.55c5.14,1.56,10.01,4.69,12.93,9.06c6.02,2.7,10.95,5.97,14.81,9.09
			c0.12,0.1,0.24,0.2,0.36,0.3l7.15-7.54l19.35-20.42L366.58,141.59z M364.38,170.57c6.29-6.63,16.71-6.91,23.32-0.65
			c6.63,6.29,6.91,16.71,0.62,23.34c-6.27,6.61-16.69,6.89-23.32,0.6C358.39,187.6,358.11,177.18,364.38,170.57z"/>
		<path class="st9" d="M370.71,137.24l-5.08-4.82l-68.66,72.41l35.4,33.57l7.8,7.4c2.12-1.27,4.48-2.5,7.1-3.65l-8.11-7.69
			l-31.93-30.27l10.4-10.96l48.95-51.64l85.83,81.38l-19.35,20.42l-7.15,7.54c2.44,1.99,4.44,3.92,6,5.57l7.15-7.54l23.43-24.71
			L370.71,137.24z"/>
		<path class="st10" d="M410.74,241.54c-4.68-2.09-10.02-3.84-16.04-4.9c-0.1-0.01-0.21-0.03-0.34-0.05
			c-3.72-0.64-7.69-1.01-11.94-1.03c-0.17-0.01-0.34-0.01-0.49-0.01c-2.62,0-5.12,0.09-7.51,0.26c-3.74,0.25-7.22,0.7-10.46,1.3
			c-0.95,0.17-1.89,0.36-2.8,0.57c0.03-2.06,0.04-4.12,0.02-6.18l0.6-0.02c5-0.17,10.01-0.37,15-0.55
			c7.09-0.25,14.28-0.49,21.03,1.55C402.95,234.04,407.82,237.17,410.74,241.54z"/>
		<path class="st11" d="M361.18,231.5c0.02,2.06,0.01,4.12-0.02,6.18c-1.54,0.33-3.03,0.71-4.47,1.11
			c-3.45,0.98-6.59,2.11-9.42,3.36l-8.11-7.69l-31.93-30.27l10.4-10.96c8.73-1.42,17.72-1.29,26.38,0.37
			c4.24,0.8,8.61,2.08,11.62,5.15c4.01,4.09,4.71,10.26,5.04,15.98c0.24,4.11,0.4,8.22,0.47,12.33
			C361.17,228.54,361.18,230.02,361.18,231.5z"/>
		<path class="st12" d="M387.7,169.92c6.63,6.29,6.91,16.71,0.62,23.34c-6.27,6.61-16.69,6.89-23.32,0.6
			c-6.61-6.27-6.89-16.69-0.62-23.3C370.67,163.94,381.09,163.66,387.7,169.92z"/>
	</g>
</g>
<g>
	<g>
		<path class="st13" d="M443.41,132.94l-12.8,54.31c-1.59-2.56-3.14-5.12-4.73-7.69c-1.44-2.4-2.93-4.82-4.98-6.74
			c-5.11-4.87-12.99-5.82-19.89-4.19c-6.86,1.64-12.96,5.46-18.95,9.24c-4.23,2.67-8.46,5.36-12.69,8.03l-0.51,0.32
			c-2.81-4.82-5.79-9.56-8.88-14.23c-3.16-4.78-6.87-9.76-12.4-11.28c-4.15-1.13-8.56-0.05-12.63,1.41
			c-8.32,2.92-16.15,7.33-22.99,12.95l16.32-69.26L443.41,132.94z M373.07,139.52c2.1-8.89-3.39-17.76-12.28-19.86
			c-8.86-2.09-17.73,3.4-19.83,12.29c-2.09,8.86,3.4,17.73,12.26,19.82C362.12,153.87,370.98,148.39,373.07,139.52z"/>
		<path class="st9" d="M430.61,187.26l12.8-54.31l-115.12-27.13l-16.32,69.26l-3.47,14.71l70.3,16.56l44.83,10.56L430.61,187.26z
			 M452.76,128.98l-22.89,97.13l-129.92-30.61l22.89-97.13L452.76,128.98z"/>
		<path class="st14" d="M430.61,187.26l-6.99,29.65l-44.83-10.56l0.3-1.27c-3.19-6.38-6.59-12.69-10.24-18.84l0.51-0.32
			c4.23-2.67,8.46-5.36,12.69-8.03c5.99-3.78,12.09-7.6,18.95-9.24c6.89-1.63,14.77-0.68,19.89,4.19c2.05,1.92,3.55,4.34,4.98,6.74
			C427.47,182.13,429.02,184.69,430.61,187.26z"/>
		<path class="st0" d="M379.1,205.07l-0.3,1.27l-70.3-16.56l3.47-14.71c6.83-5.62,14.66-10.03,22.99-12.95
			c4.07-1.45,8.48-2.54,12.63-1.41c5.52,1.52,9.23,6.49,12.4,11.28c3.09,4.67,6.08,9.41,8.88,14.23
			C372.51,192.37,375.91,198.68,379.1,205.07z"/>
		<path class="st15" d="M360.79,119.67c8.89,2.1,14.38,10.96,12.28,19.86c-2.09,8.86-10.95,14.35-19.85,12.25
			c-8.86-2.09-14.35-10.95-12.26-19.82C343.06,123.06,351.92,117.58,360.79,119.67z"/>
	</g>
</g>
</svg>
