<?xml version="1.0" encoding="utf-8"?>
<!-- Generator: Adobe Illustrator 23.0.4, SVG Export Plug-In . SVG Version: 6.00 Build 0)  -->
<svg version="1.1" id="template" xmlns="http://www.w3.org/2000/svg" xmlns:xlink="http://www.w3.org/1999/xlink" x="0px" y="0px"
	 viewBox="0 0 450 400" style="enable-background:new 0 0 450 400;" xml:space="preserve">
<style type="text/css">
	.st0{fill:url(#SVGID_1_);}
	.st1{opacity:0.25;fill:url(#SVGID_2_);}
	.st2{opacity:0.25;fill:url(#SVGID_3_);}
	.st3{opacity:0.25;fill:url(#SVGID_4_);}
	.st4{fill:url(#SVGID_5_);}
	.st5{fill:url(#SVGID_6_);}
	.st6{fill:url(#SVGID_7_);}
	.st7{fill:url(#SVGID_8_);}
	.st8{fill:url(#SVGID_9_);}
	.st9{fill:url(#SVGID_10_);}
	.st10{fill:url(#SVGID_11_);}
</style>
<g>
	<g>
		<g>
			
				<radialGradient id="SVGID_1_" cx="-245.8377" cy="-94.3225" r="818.2242" gradientTransform="matrix(-0.6727 -0.1308 -0.1308 0.6727 357.8131 72.8812)" gradientUnits="userSpaceOnUse">
				<stop  offset="0.0556" style="stop-color:#FAF1D6"/>
				<stop  offset="0.9519" style="stop-color:#CC928E"/>
			</radialGradient>
			<path class="st0" d="M64.49,379.97c19.04,3.7,36.76-2.66,47.39-17.01c12.08-16.3,12.22-39.37,0.38-61.7
				c-5.77-10.89-4.7-23.58,2.79-33.12c10.47-13.32,30.79-17.71,54.32-11.74c28.57,7.25,46.11,27.98,63.07,48.02
				c16.36,19.33,31.8,37.59,55.24,38.22c26.89,0.72,61.49-13.44,75.61-41.9c9.43-19.01,13.07-51.15-23.18-96.3
				c-9.56-11.9-19.19-23.39-28.5-34.5C277,128.66,244.31,89.66,248.3,66.33c0.46-2.68,1.85-10.84,16.63-19.59
				c26.98-15.98,40.61-1.59,69.94,40.48c12.14,17.42,24.7,35.42,40.49,48.75c27.3,23.04,46.56,32.27,60.62,29.05
				c6.39-1.47,11.63-5.54,14.02-10.9l-27.06-12.05c2.27-5.09,6.29-6.06,7.24-6.04c-0.37-0.01-9.36-0.46-35.71-22.7
				c-12.82-10.82-24.25-27.21-35.3-43.06c-13.41-19.23-26.08-37.4-42.39-48.7c-20.65-14.3-43.18-14.41-66.95-0.34
				c-17.63,10.44-27.97,23.93-30.74,40.09c-6.3,36.85,27.29,76.92,69.82,127.64c9.21,10.99,18.74,22.35,28.1,34.02
				c14.6,18.19,29.88,44.15,19.75,64.58c-8.93,18-34.09,25.83-48.28,25.44c-10.17-0.27-20.95-13-33.42-27.74
				c-18.1-21.39-40.63-48.02-78.4-57.6c-35.26-8.93-66.98-0.66-84.91,22.15c-14.84,18.89-17.01,43.91-5.67,65.3
				c6.36,12,7.1,23.29,1.99,30.19c-3.73,5.03-10.27,7.06-17.94,5.57c-13.78-2.68-28.56-34.72-34.21-55.53l-28.6,7.72
				C10.45,314.66,27.88,372.85,64.49,379.97z"/>
		</g>
		
			<radialGradient id="SVGID_2_" cx="47.7945" cy="-15.9985" r="521.716" gradientTransform="matrix(-0.6727 -0.1308 -0.1308 0.6727 357.8131 72.8812)" gradientUnits="userSpaceOnUse">
			<stop  offset="0" style="stop-color:#B10058"/>
			<stop  offset="1" style="stop-color:#5C2D7D;stop-opacity:0.6"/>
		</radialGradient>
		<path class="st1" d="M323.74,213.78c-2.73,2.04-5.62,4.58-8.67,6.82c-2.18-2.69-4.35-5.37-6.54-8.03c2.93-2.08,6.07-3.94,8.9-5.92
			c5.21-3.65,10.6-7.05,15.97-10.47c1.57,1.93,3.15,3.87,4.72,5.82C333.42,206.03,328.7,210.08,323.74,213.78z M352.94,222.43
			c-1.3-2.08-2.67-4.2-4.15-6.35c-6.9,8.84-16.71,10.97-26.98,13.16c2.02,2.76,4.01,5.65,5.87,8.63
			C337.72,236.55,347.25,230.85,352.94,222.43z M307.43,196.76c5.19-4.78,9.27-10.45,12.83-16.49c-1.33-1.6-2.66-3.18-3.98-4.76
			c-4.77,4.98-9.99,9.51-15.36,13.85c-2.21,1.79-4.79,3.49-7.19,5.36c2.19,2.62,4.4,5.26,6.61,7.92
			C302.88,200.9,305.24,198.78,307.43,196.76z M271.67,149.77c4.98-3.39,9.99-6.7,15.07-9.93c-1.44-1.8-2.86-3.58-4.25-5.36
			c-5.02,2.23-10,4.57-14.88,7.08c-3.83,1.97-8.18,4.05-12.02,6.65c2.11,2.74,4.29,5.5,6.53,8.3
			C265.43,154.35,268.6,151.86,271.67,149.77z M250.44,83.29c-0.98-2.87-1.68-5.62-2.08-8.23c-8.14-2.8-16.5-4.63-25.18-2.55
			c-1.58,0.38-3.16,0.88-4.71,1.5c0.22,3.56,0.77,7.15,1.61,10.79c2.57-1.5,5.37-2.62,8.69-3.08
			C235.99,80.7,243.31,81.86,250.44,83.29z M224.35,98.06c1.15,2.83,2.46,5.7,3.9,8.59c1.5-1.21,3.17-2.29,5.19-3.13
			c8.18-3.39,16.89-3.34,25.52-2.43c-1.35-2.3-2.59-4.54-3.72-6.74c-9.05-1.66-18.51-2.08-27.01,1.7
			C227,96.61,225.68,97.29,224.35,98.06z M224.46,45.97c-1.76,3.22-3.15,6.58-4.14,10.08c4.6-1.04,9.03-1.46,14.54-0.34
			c5.31,1.08,10.41,2.8,15.32,4.96c0.79-1.53,1.94-3.26,3.6-5.12C244.98,50.79,233.78,46.09,224.46,45.97z M240.73,127.77
			c1.92,2.85,3.93,5.74,6.04,8.66c2.81-2.07,5.52-4.32,8.47-6.1c5.58-3.38,11.92-5.98,18.31-7.54c-1.77-2.39-3.47-4.75-5.1-7.07
			C258.73,117.12,247.65,120.91,240.73,127.77z M273.45,170.45c1.79,2.17,3.62,4.36,5.46,6.57c8.16-5.49,15.68-12.33,22.91-18.78
			c-1.44-1.73-2.87-3.45-4.28-5.16C289.42,158.41,280.84,163.94,273.45,170.45z M388.32,146.3c3.2,2.39,6.27,4.56,9.22,6.5
			c1.23-3.93,2.72-7.71,5.27-11.52c3.3-4.93,7.6-8.81,12.21-12.4c-2.46-1.59-5.27-3.53-8.45-5.9
			C398.07,127.97,391.11,136.73,388.32,146.3z M103.24,341.87c5.82,1.38,10.69,4.81,15.09,8.74c0.84-2.46,1.49-4.99,1.94-7.6
			c-5.02-4.8-10.77-8.75-17.73-10.28c-3.59-0.79-7.51-0.86-11.14-0.05c0.18,3.97-0.49,7.54-2.03,10.52
			C93.77,341.59,98.13,340.66,103.24,341.87z M337.48,258.16c0.95,2.95,1.67,5.9,2.1,8.83c5.31-0.78,10.53-2.65,15.26-5.25
			c3.59-1.97,8.24-5.18,11.9-9.06c-0.71-2.55-1.57-5.17-2.58-7.86c-4.55,5.21-13.59,9.84-17.64,11.28
			C343.56,257.15,340.53,257.78,337.48,258.16z M70.54,350.94c0.29,0.29,0.66,0.53,1.13,0.69c5.96,2.04,10.68,6.14,13.22,11.96
			c1.17,2.67,1.88,5.64,2.16,8.53c0.24,2.54-0.41,4.96-0.25,7.45c3.02-0.74,5.92-1.78,8.67-3.09c1.07-5.55-0.71-12.15-3.1-16.64
			c-2.26-4.24-5.4-7.74-9.19-10.38C79.71,351.26,75.36,351.8,70.54,350.94z M279.78,341.71c2.54,0.53,5.16,0.85,7.9,0.93
			c0.36,0.01,0.73,0.01,1.1,0.01c-1.39-3.89-2.78-7.8-3.05-11.74c-0.47-6.89,2.25-12.86,6.36-17.97c-1.26,0.08-2.48,0.12-3.61,0.09
			c-1.65-0.04-3.31-0.44-5-1.1C277.15,321,275.73,331.84,279.78,341.71z M173.86,239.33c-2.45,5.77-2.78,11.83-1.92,17.81
			c2.76,0.8,5.44,1.69,8,2.73c-0.64-5.2-0.42-10.51,1.77-15.33c2.55-5.6,6.83-7.94,11.28-11.33c-3.56-1.52-7.28-2.89-11.16-4.07
			C178.29,231.72,175.45,235.57,173.86,239.33z M258.82,29.79c-2.59-2.71-5.9-5.75-9.53-8.22c-3.07,1.84-5.92,3.78-8.54,5.81
			c3.96,2.55,8.21,4.82,11.81,7.75c4.32,3.52,8.2,7.63,11.67,12.03c0.24-0.14,0.45-0.29,0.69-0.43c1.47-0.87,2.9-1.64,4.3-2.33
			C266.52,39.07,263.11,34.29,258.82,29.79z M333.55,36.58c-7.68,5.86-15.52,13.28-20.59,21.5c2.17,2.49,4.4,5.23,6.73,8.23
			c2.94-3.77,5.58-7.83,8.6-11.51c3.38-4.1,7.05-8,10.83-11.79C337.29,40.79,335.43,38.65,333.55,36.58z M294.97,42.92
			c2.59,1.24,5.17,2.93,7.8,5.06c2.76-4.17,5.3-8.56,7.65-12.54c2.77-4.7,4.78-9.4,5.55-14.39c-2.04-1.37-4.11-2.61-6.18-3.71
			c-2.38,7.76-7.02,14.39-11.8,21.16C296.95,39.96,295.93,41.43,294.97,42.92z M287.01,40.55c0.43-4.89-0.78-9.87-2.62-14.7
			c-1.83-4.82-3.91-9.9-6.44-14.68c-3.08,0.36-6.19,0.97-9.32,1.85c1.61,3.43,3.39,6.79,4.94,10.21c2.39,5.25,6.05,11.54,5.93,17.59
			C282.1,40.36,284.58,40.26,287.01,40.55z M118.01,315.03c-1.07-3.44-2.41-6.9-4.05-10.36c-6.07-2.84-12.04-5.15-19.62-4.07
			c-4.62,0.66-8.82,2.19-12.44,4.55c1.09,3.36,2.45,6.67,4.16,9.9c4.17-2.69,8.85-4.48,13.94-4.48
			C106.27,310.56,111.99,313.45,118.01,315.03z M103.08,244.87c-1.49-0.78-3.1-1.49-4.78-2.12c-2.34,2.18-4.54,4.53-6.55,7.08
			c-0.94,1.2-1.83,2.42-2.66,3.66c2.79,0.33,5.58,0.85,8.38,1.8c6.99,2.38,13.5,6.5,18.1,12.24c1.52-1.84,3.24-3.49,5.13-4.97
			C116.63,255.11,111.05,249.05,103.08,244.87z M131.13,256.82c2.45-0.9,5.06-1.58,7.79-2.09c-2.07-10.03-4.02-20.4-9.99-28.16
			c-3.46,0.84-6.79,1.92-10,3.2c2.95,3.96,5.68,7.97,7.66,12.9C128.46,247.29,129.7,252.08,131.13,256.82z M160.1,254.56
			c-2.25-9.64,1.71-19.76,2.67-29.52c-3.48-0.45-6.91-0.71-10.27-0.81c-3.83,5.01-5.25,12.13-5.09,18.19
			c0.12,4.33,1,7.98,2.39,11.38C153.12,253.81,156.56,254.05,160.1,254.56z M354.63,63.78c-1.7-2.41-3.39-4.8-5.09-7.15
			c-9.48,3.18-17.48,10.88-22.05,20.15c2.15,2.98,4.39,6.15,6.72,9.49c2.15-4.41,4.19-8.89,7.27-12.83
			C344.97,68.96,349.48,65.54,354.63,63.78z M28.39,351.56c4.64-1.06,9.21-3.22,13.04-5.22c4.86-2.53,9.22-5.5,13.02-9.15
			c-1.48-2.17-2.92-4.52-4.31-6.99c-4.16,3.13-8.53,6.02-13.22,8.16c-4.35,1.98-9.22,2.93-13.76,4.48
			C24.77,345.78,26.52,348.7,28.39,351.56z M12.49,319.13c1.16,3.15,2.51,6.56,4.05,10.1c6.32,0.32,13.12-3.43,18.05-6.69
			c2.8-1.85,5.95-4.04,8.57-6.64c-1.26-2.96-2.43-5.92-3.48-8.83c-1.66,1.33-3.94,2.17-5.58,3.15c-2.46,1.46-4.78,3.09-7.34,4.37
			C22.2,316.87,17.15,317.45,12.49,319.13z M42.48,368.36c2.67,2.39,5.5,4.53,8.49,6.32c3.59-2.97,6.66-6.92,8.72-10.04
			c3.15-4.77,5.06-10.13,5.86-15.68c-2.31-1.44-4.61-3.56-6.86-6.18c-0.79,6.79-3.52,13.12-7.85,18.56
			C48.55,364.22,45.4,366.2,42.48,368.36z M78.96,284.52c6.18-2.77,16.26,1.65,21.73,3.71c2.82,1.07,5.6,2.25,8.34,3.51
			c-0.46-2.73-0.55-5.48-0.27-8.19c-9.05-5.2-20.25-10.43-28.25-10.62C79.6,276.74,79.1,280.62,78.96,284.52z M190.17,264.88
			c3.14,1.81,6.13,3.79,9,5.91c1.89-3,3.71-6.08,6.07-8.74c4.3-4.85,9.53-9.2,15.32-12.19c-2.42-1.92-4.92-3.78-7.53-5.57
			c-5.72,2.14-10.78,5.32-15.25,9.86C194.98,257,192.09,260.79,190.17,264.88z M396.27,114.83c-9.63,3.09-17.96,10.39-22.86,19.43
			c0.65,0.57,1.29,1.15,1.95,1.7c1.26,1.06,2.48,2.06,3.7,3.06c5.05-8.6,12.08-15.25,21.59-20.63
			C399.25,117.29,397.79,116.1,396.27,114.83z M384.91,104.06c-2.17-2.37-4.31-4.86-6.41-7.44c-9.7,2.98-19.73,8.92-24.39,16.96
			c2.47,3.1,5.01,6.12,7.63,9.04c2.51-4.91,5.89-9.19,10.74-12.41C376.37,107.63,380.67,105.9,384.91,104.06z M369.09,281.79
			c0.28-2.1,0.46-4.29,0.53-6.56c-5.64,4.93-12.55,7.56-20.14,8c-3.78,0.22-7.22-0.36-10.63-1.18c-0.52,1.88-1.2,3.73-2.1,5.53
			c-0.56,1.12-1.17,2.2-1.85,3.24C346.11,294.86,360.14,290.02,369.09,281.79z M369.43,84.78c-1.54-2.12-3.07-4.26-4.6-6.41
			c-3.46,1.03-6.8,2.51-9.98,4.48c-4.95,3.06-10.94,8.36-13.03,14.3c1.38,1.94,2.78,3.88,4.19,5.81c4.7-3.63,8.09-8.88,12.99-12.51
			C362.17,88.08,365.71,86.17,369.43,84.78z M209.66,279.55c2.54,2.37,4.99,4.83,7.38,7.35c3.25-5.24,5.18-10.75,10.3-14.96
			c3.16-2.6,6.8-4.41,10.41-6.25c-1.84-1.92-3.73-3.83-5.69-5.71C222.34,263.78,212.4,270.78,209.66,279.55z M258.9,331.7
			c-0.08-4.73,0.36-9.34,2.63-14.23c2.55-5.5,6.5-9.53,11.15-12.85c-2.22-2.03-4.49-4.36-6.81-6.89
			c-8.68,5.34-15.56,14.7-17.53,24.56C251.76,325.74,255.25,328.92,258.9,331.7z M353.26,315.37c2.11-2.33,4.06-4.81,5.84-7.44
			c-7.07,0.6-14.39,0.66-21.02-2.2c-4.29-1.85-6.65-4.75-8.98-8.06c-2.51,2.37-5.31,4.46-8.3,6.26c2.31,4.17,6.46,7.48,10.83,9.61
			C338.49,316.88,345.97,316.73,353.26,315.37z M232.45,304.42c0.87,1.03,1.73,2.05,2.6,3.07c2.58-6.8,3.65-14.12,10.58-18.28
			c2.93-1.75,6.17-2.86,9.47-3.88c-0.01-0.01-0.02-0.03-0.04-0.04c-1.82-2.15-3.69-4.36-5.61-6.6c-4.54,1.18-8.94,2.68-12.6,5.76
			c-4.36,3.67-7.27,9.34-8.43,15.22C229.77,301.25,231.11,302.84,232.45,304.42z M319.52,337.27c3.81-1.37,7.58-3,11.23-4.88
			c-5.91-2.17-11.26-5.9-15.01-10.97c-3.07-4.15-4.08-8.35-4.72-12.73c-3.67,1.41-7.38,2.46-10.91,3.17
			c1.1,6.12,4.07,12.15,7.54,16.41C310.96,332.34,315.02,335.32,319.52,337.27z"/>
		<g>
			
				<radialGradient id="SVGID_3_" cx="253.535" cy="396.7412" r="157.4832" gradientTransform="matrix(-0.6727 -0.1308 -0.1308 0.6727 357.8131 72.8812)" gradientUnits="userSpaceOnUse">
				<stop  offset="0" style="stop-color:#B10058"/>
				<stop  offset="1" style="stop-color:#5C2D7D;stop-opacity:0.6"/>
			</radialGradient>
			<path class="st2" d="M35.93,295.35c4.25,15.65,13.65,37.64,23.92,48.73c-1.19,0.6-2.51,0.87-3.96,0.73
				c-15.68-1.53-26.05-22.56-21.4-3.4c4.64,19.16,34.32,34.82,61.95,25.74c27.64-9.08,24.82-41.59,12.13-58.51
				c-12.69-16.92-5.03-36.74,2.81-49.67c7.84-12.93,22.03-15.5,11.3-22.91c-6.55-4.52-24.95,12.7-38.92,27.23
				c2.04-4.71,4.68-9.24,7.99-13.46c17.92-22.81,49.65-31.08,84.91-22.15c37.77,9.59,60.3,36.21,78.4,57.6
				c3.75,4.43,7.34,8.67,10.81,12.45l0,0c-9.36-2.97-42.27-36.74-55.12-29.34c-3.71,2.14-2.9,6.93,0.9,13.06
				c-11.58-11.21-24.87-20.63-42.27-25.05c-23.53-5.97-43.85-1.59-54.32,11.74c-7.49,9.54-8.57,22.23-2.79,33.12
				c11.84,22.33,11.7,45.4-0.38,61.7c-10.64,14.35-28.35,20.71-47.39,17.01c-36.6-7.12-54.04-65.31-57.16-76.9L35.93,295.35z"/>
			
				<radialGradient id="SVGID_4_" cx="18.5421" cy="179.9815" r="200.9397" gradientTransform="matrix(-0.6727 -0.1308 -0.1308 0.6727 357.8131 72.8812)" gradientUnits="userSpaceOnUse">
				<stop  offset="0" style="stop-color:#B10058"/>
				<stop  offset="1" style="stop-color:#5C2D7D;stop-opacity:0.6"/>
			</radialGradient>
			<path class="st3" d="M232.45,304.42c-0.3-0.36-0.61-0.72-0.92-1.08c12.04,10.66,27.07,21.26,40.79,28
				c33.34,16.37,60.67,4.95,82.74-30.33c22.07-35.28-7.46-79.06-18.52-92.62c-11.06-13.56-18.96-12.06-3.97,24.34
				c3.43,8.33,4.58,16.41,4.37,23.84c-4.23-12.05-12.17-23.9-19.93-33.56c-9.36-11.66-18.89-23.02-28.1-34.02
				c-31.35-37.4-57.83-69-67.06-97.8c23.66,47.01,57.36,66.64,48.99,48.12c-9.04-20.02-34.18-62.95-27.28-86.72
				c6.9-23.77,31.95-23.46,51.87-24.16c19.92-0.69,37.56,37.74,74.56,82.21s64.38,40.67,64.38,40.67s5.92,1.87,13.47,6.35
				c-2.78,3.58-6.98,6.23-11.87,7.35c-14.06,3.22-33.32-6-60.62-29.05c-15.79-13.33-28.35-31.34-40.49-48.75
				c-29.33-42.07-42.97-56.46-69.94-40.48c-14.77,8.75-16.17,16.91-16.63,19.59c-3.99,23.34,28.7,62.33,63.32,103.62
				c9.31,11.11,18.94,22.59,28.5,34.5c36.25,45.15,32.62,77.29,23.18,96.3c-14.12,28.46-48.72,42.62-75.61,41.9
				C264.25,342.01,248.8,323.75,232.45,304.42z"/>
		</g>
	</g>
	<g>
		<g>
			
				<radialGradient id="SVGID_5_" cx="96.9058" cy="-103.5436" r="805.1818" gradientTransform="matrix(-0.6727 -0.1308 -0.1308 0.6727 357.8131 72.8812)" gradientUnits="userSpaceOnUse">
				<stop  offset="0.0556" style="stop-color:#FAF1D6"/>
				<stop  offset="1" style="stop-color:#CD948F;stop-opacity:0"/>
			</radialGradient>
			<path class="st4" d="M302.65,23.28c-10.43-2.51-27.33,1.99-37.25,5.82c-11.82,4.57-22.17,14.91-28.75,25.62
				c-1.29,2.11-5.57,2.07-5.42-1.05c0.67-14.11,14.85-25.71,27.07-30.91c13.11-5.58,32.34-9.54,45.39-2.58
				C305.28,21.03,304.52,23.73,302.65,23.28L302.65,23.28z"/>
		</g>
		<g>
			
				<radialGradient id="SVGID_6_" cx="96.9058" cy="-103.5436" r="805.1788" gradientTransform="matrix(-0.6727 -0.1308 -0.1308 0.6727 357.8131 72.8812)" gradientUnits="userSpaceOnUse">
				<stop  offset="0.0556" style="stop-color:#FAF1D6"/>
				<stop  offset="1" style="stop-color:#CD948F;stop-opacity:0"/>
			</radialGradient>
			<path class="st5" d="M349.03,245.04c8.9,17.59,9.12,35.93-1.24,53.1c-8.82,14.63-28.02,28.95-45.88,27.1
				c-3.09-0.32-3.99-5.07-1.34-6.6c7.05-4.07,15.3-5.27,22.4-9.39c6.1-3.55,11.31-8.35,15.61-13.94
				c10.44-13.58,13.61-33.31,9.38-49.72C347.79,244.96,348.7,244.38,349.03,245.04L349.03,245.04z"/>
		</g>
		<g>
			
				<radialGradient id="SVGID_7_" cx="96.9059" cy="-103.5464" r="805.1834" gradientTransform="matrix(-0.6727 -0.1308 -0.1308 0.6727 357.8131 72.8812)" gradientUnits="userSpaceOnUse">
				<stop  offset="0.0556" style="stop-color:#FAF1D6"/>
				<stop  offset="1" style="stop-color:#CD948F;stop-opacity:0"/>
			</radialGradient>
			<path class="st6" d="M285.62,322.66c-7.82,1.06-18.97,0.47-24.34-6.19c-1.57-1.94,0.61-4.69,2.83-4.28
				c3.2,0.59,6.17,2.4,9.28,3.44c3.86,1.29,7.74,1.9,11.83,1.83C288.57,317.41,288.94,322.2,285.62,322.66L285.62,322.66z"/>
		</g>
		<g>
			
				<radialGradient id="SVGID_8_" cx="96.9052" cy="-103.5438" r="805.1814" gradientTransform="matrix(-0.6727 -0.1308 -0.1308 0.6727 357.8131 72.8812)" gradientUnits="userSpaceOnUse">
				<stop  offset="0.0556" style="stop-color:#FAF1D6"/>
				<stop  offset="1" style="stop-color:#CD948F;stop-opacity:0"/>
			</radialGradient>
			<path class="st7" d="M102.83,259.67c-11.74,17.91-7.12,35.19-0.46,53.85c4.6,12.9,10.73,31.38,1.38,43.49
				c-2.6,3.36-7.09,0.17-6.77-3.32c1.03-11.27,1.97-19.96-1.58-31.19c-2.41-7.61-5.61-14.99-7.37-22.79
				c-3.58-15.86-0.45-30.86,11.52-42.24C101.04,256.04,104.17,257.63,102.83,259.67L102.83,259.67z"/>
		</g>
		<g>
			
				<radialGradient id="SVGID_9_" cx="96.9054" cy="-103.545" r="805.181" gradientTransform="matrix(-0.6727 -0.1308 -0.1308 0.6727 357.8131 72.8812)" gradientUnits="userSpaceOnUse">
				<stop  offset="0.0556" style="stop-color:#FAF1D6"/>
				<stop  offset="1" style="stop-color:#CD948F;stop-opacity:0"/>
			</radialGradient>
			<path class="st8" d="M87.03,363.96c-10.8,3.09-25.39,3.12-32.99-6.53c-1.67-2.12,0.65-4.91,3.01-4.55
				c9.95,1.53,17.97,5.21,28.35,3.33C89.84,355.41,91.35,362.73,87.03,363.96L87.03,363.96z"/>
		</g>
		<g>
			
				<radialGradient id="SVGID_10_" cx="96.9056" cy="-103.5434" r="805.1787" gradientTransform="matrix(-0.6727 -0.1308 -0.1308 0.6727 357.8131 72.8812)" gradientUnits="userSpaceOnUse">
				<stop  offset="0.0556" style="stop-color:#FAF1D6"/>
				<stop  offset="1" style="stop-color:#CD948F;stop-opacity:0"/>
			</radialGradient>
			<path class="st9" d="M393.7,127.91c-12.46-6.53-25.64-19.3-29.39-33.3c-0.67-2.51,2.43-5.34,4.59-3.1
				c4.86,5.04,8.49,11.19,12.93,16.6c4.68,5.7,9.71,11.17,14.52,16.77C397.75,126.51,395.44,128.83,393.7,127.91L393.7,127.91z"/>
		</g>
		<g>
			
				<radialGradient id="SVGID_11_" cx="96.9055" cy="-103.5437" r="805.181" gradientTransform="matrix(-0.6727 -0.1308 -0.1308 0.6727 357.8131 72.8812)" gradientUnits="userSpaceOnUse">
				<stop  offset="0.0556" style="stop-color:#FAF1D6"/>
				<stop  offset="1" style="stop-color:#CD948F;stop-opacity:0"/>
			</radialGradient>
			<path class="st10" d="M359.34,82.69c-2.15-1.85-3.89-3.81-5.69-6c-1.6-1.94-3.91-4.27-4.07-6.89c-0.11-1.68,1.55-2.61,3-2.03
				c2.37,0.95,3.94,4.03,5.26,6.09c1.51,2.37,2.78,4.63,3.87,7.23C362.29,82.5,360.41,83.61,359.34,82.69L359.34,82.69z"/>
		</g>
	</g>
</g>
</svg>
